<svg id="Layer_1" data-name="Layer 1" xmlns="http://www.w3.org/2000/svg" width="805.99" height="122.14" viewBox="0 0 805.99 122.14"><defs><style>.cls-1{fill:#1a191a;}</style></defs><title>NB_logo_wordmark_final_dark_reg_trademark</title><path class="cls-1" d="M104.39,58.41H82.33v8.22h22.06c2,0,3.52-.4,3.52-2.39V61.12C107.91,59.13,106.38,58.41,104.39,58.41Z" transform="translate(-12.67 -11.94)"/><path class="cls-1" d="M104.39,77.75H82.33v9.69h22.06c2,0,3.52-1,3.52-3V80.15C107.91,78.16,106.38,77.75,104.39,77.75Z" transform="translate(-12.67 -11.94)"/><path class="cls-1" d="M73.74,11.94A61.07,61.07,0,1,0,134.81,73,61.07,61.07,0,0,0,73.74,11.94ZM109,97.82H82.33v0H70.68l0,0h-.1v-.1L41,69.34V97.86H26.94V48.07H38.59L68.26,76.58V48.07h2.27v0H109c5.26,0,10.53,5.19,10.53,10.53v2.77a11,11,0,0,1-9.46,10.74,11.33,11.33,0,0,1,9.82,11v4.27c-.05,9,3.81,13.85,3.81,13.85A31.83,31.83,0,0,0,109,97.82Z" transform="translate(-12.67 -11.94)"/><path class="cls-1" d="M812.12,53.55A6.52,6.52,0,1,1,818.66,47,6.47,6.47,0,0,1,812.12,53.55Zm0-12.39A5.87,5.87,0,1,0,818,47,5.81,5.81,0,0,0,812.16,41.16Zm1.44,6.52,1.84,2.57h-1.55l-1.66-2.36h-1.42v2.36h-1.3V43.43h3c1.58,0,2.63.81,2.63,2.18A2,2,0,0,1,813.6,47.68Zm-1.1-3.08h-1.69v2.16h1.69c.85,0,1.35-.41,1.35-1.08S813.35,44.6,812.5,44.6Z" transform="translate(-12.67 -11.94)"/><path class="cls-1" d="M235.47,97.95h-7.93L190.92,67.12a35.22,35.22,0,0,1-4.16-4.06q.48,4.84.48,7.64V97.95H176.81V48.08h7.93l35.09,29.38a54.39,54.39,0,0,1,5.7,5.41q-.48-7-.48-8.6V48.08h10.44Z" transform="translate(-12.67 -11.94)"/><path class="cls-1" d="M338.9,97.95H296V56.39H338.5v7.09H305.64v9.26h19.17v7.09H305.64V90.14H338.9Z" transform="translate(-12.67 -11.94)"/><path class="cls-1" d="M426.29,63.8H407.12V97.95h-9.66V63.8H378.37V56.39h47.92Z" transform="translate(-12.67 -11.94)"/><path class="cls-1" d="M525.59,88.19q0,9.76-14.69,9.76H471.27V48.08H514q11.21,0,11.21,9.66v6.09q0,7.35-8.6,8.41,9,1.16,9,9.57ZM514.47,64.51V59.77q0-3.57-5.32-3.58H482.67V68.08h26.48Q514.47,68.08,514.47,64.51Zm.29,20V80.74q0-2.8-1.3-3.62a8.43,8.43,0,0,0-4.3-.82H482.67V89h26.48a8.44,8.44,0,0,0,4.3-.82Q514.76,87.32,514.76,84.51Z" transform="translate(-12.67 -11.94)"/><path class="cls-1" d="M626,97.95H583.09V56.39h42.53v7.09H592.76v9.26h19.17v7.09H592.76V90.14H626Z" transform="translate(-12.67 -11.94)"/><path class="cls-1" d="M717.84,97.95H674.91V56.39h42.53v7.09H684.58v9.26h19.17v7.09H684.58V90.14h33.26Z" transform="translate(-12.67 -11.94)"/><path class="cls-1" d="M805.63,97.95H761V93.44L790.09,63.8H763.91V56.39h41.72V60.5L776.15,90.14h29.48Z" transform="translate(-12.67 -11.94)"/></svg>